STARTFONT 2.1
FONT psf
SIZE 18 75 75
FONTBOUNDINGBOX 10 18 0 -4
STARTPROPERTIES 3
FONT_DESCENT 4
FONT_ASCENT 14
DEFAULT_CHAR 255
ENDPROPERTIES
CHARS 256
STARTCHAR C0000
ENCODING 0
SWIDTH 666 0
DWIDTH 10 0
BBX 10 18 0 -4
BITMAP
0000
0000
1c00
1600
1a00
3600
6b00
dd80
be80
8080
be80
a280
a280
e380
0000
0000
0000
0000
ENDCHAR
STARTCHAR C0001
ENCODING 1
SWIDTH 666 0
DWIDTH 10 0
BBX 10 18 0 -4
BITMAP
0000
0000
1c00
3400
2c00
3600
6b00
dd80
be80
8080
be80
a280
a280
e380
0000
0000
0000
0000
ENDCHAR
STARTCHAR C0002
ENCODING 2
SWIDTH 666 0
DWIDTH 10 0
BBX 10 18 0 -4
BITMAP
0000
0000
1c00
3600
2a00
3e00
6300
dd80
be80
8080
be80
a280
a280
e380
0000
0000
0000
0000
ENDCHAR
STARTCHAR C0003
ENCODING 3
SWIDTH 666 0
DWIDTH 10 0
BBX 10 18 0 -4
BITMAP
0000
0000
7f00
cd00
b300
f600
6b00
dd80
be80
8080
be80
a280
a280
e380
0000
0000
0000
0000
ENDCHAR
STARTCHAR C0004
ENCODING 4
SWIDTH 666 0
DWIDTH 10 0
BBX 10 18 0 -4
BITMAP
0000
0000
ff80
8080
ff80
3600
6b00
dd80
be80
8080
be80
a280
a280
e380
0000
0000
0000
0000
ENDCHAR
STARTCHAR C0005
ENCODING 5
SWIDTH 666 0
DWIDTH 10 0
BBX 10 18 0 -4
BITMAP
0000
0000
7700
5d00
6300
3e00
6300
dd80
be80
8080
be80
a280
a280
e380
0000
0000
0000
0000
ENDCHAR
STARTCHAR C0006
ENCODING 6
SWIDTH 666 0
DWIDTH 10 0
BBX 10 18 0 -4
BITMAP
0000
0000
ff80
b680
eb80
dd80
b680
a280
be80
8080
be80
a280
a280
e380
0000
0000
0000
0000
ENDCHAR
STARTCHAR C0007
ENCODING 7
SWIDTH 666 0
DWIDTH 10 0
BBX 10 18 0 -4
BITMAP
0000
0000
1c00
3600
2a00
2200
6b00
dd80
be80
8080
be80
a280
a280
e380
0000
0000
0000
0000
ENDCHAR
STARTCHAR C0008
ENCODING 8
SWIDTH 666 0
DWIDTH 10 0
BBX 10 18 0 -4
BITMAP
0000
0000
1c00
3600
6b00
dd80
b680
a280
be80
8080
be80
a680
ac80
fb80
1680
1980
0f00
0000
ENDCHAR
STARTCHAR C0009
ENCODING 9
SWIDTH 666 0
DWIDTH 10 0
BBX 10 18 0 -4
BITMAP
0000
0000
0e00
1a00
3700
6180
de80
b380
a000
a000
b380
de80
6180
3f00
0000
0000
0000
0000
ENDCHAR
STARTCHAR C000a
ENCODING 10
SWIDTH 666 0
DWIDTH 10 0
BBX 10 18 0 -4
BITMAP
0000
0000
0e00
1b00
3500
6180
de80
b380
a000
a000
b380
de80
6180
3f00
0000
0000
0000
0000
ENDCHAR
STARTCHAR C000b
ENCODING 11
SWIDTH 666 0
DWIDTH 10 0
BBX 10 18 0 -4
BITMAP
0000
0000
0e00
0a00
3f00
6180
de80
b380
a000
a000
b380
de80
6180
3f00
0000
0000
0000
0000
ENDCHAR
STARTCHAR C000c
ENCODING 12
SWIDTH 666 0
DWIDTH 10 0
BBX 10 18 0 -4
BITMAP
0000
0000
0000
0000
3f00
6180
de80
b380
a000
a000
b380
de80
6180
3b00
3d00
2d00
3300
1e00
ENDCHAR
STARTCHAR C000d
ENCODING 13
SWIDTH 666 0
DWIDTH 10 0
BBX 10 18 0 -4
BITMAP
0000
0000
3e00
2a00
3700
6180
de80
b380
a000
a000
b380
de80
6180
3f00
0000
0000
0000
0000
ENDCHAR
STARTCHAR C000e
ENCODING 14
SWIDTH 666 0
DWIDTH 10 0
BBX 10 18 0 -4
BITMAP
0000
0000
3e00
2a00
f600
8600
bb00
ad00
a500
a500
ad00
bb00
8600
fc00
0000
0000
0000
0000
ENDCHAR
STARTCHAR C000f
ENCODING 15
SWIDTH 666 0
DWIDTH 10 0
BBX 10 18 0 -4
BITMAP
0000
0000
3800
2c00
f780
8080
bf80
be00
8200
be00
a000
bf80
8080
ff80
0000
0000
0000
0000
ENDCHAR
STARTCHAR C0010
ENCODING 16
SWIDTH 666 0
DWIDTH 10 0
BBX 10 18 0 -4
BITMAP
0000
0000
0e00
1a00
f780
8080
bf80
be00
8200
be00
a000
bf80
8080
ff80
0000
0000
0000
0000
ENDCHAR
STARTCHAR C0011
ENCODING 17
SWIDTH 666 0
DWIDTH 10 0
BBX 10 18 0 -4
BITMAP
0000
0000
1c00
3600
eb80
8080
bf80
bf00
8100
bf00
a000
bf80
8080
ff80
0000
0000
0000
0000
ENDCHAR
STARTCHAR C0012
ENCODING 18
SWIDTH 666 0
DWIDTH 10 0
BBX 10 18 0 -4
BITMAP
0000
0000
ff80
8080
ff80
8080
bf80
be00
8200
be00
a000
bf80
8080
ff80
0000
0000
0000
0000
ENDCHAR
STARTCHAR C0013
ENCODING 19
SWIDTH 666 0
DWIDTH 10 0
BBX 10 18 0 -4
BITMAP
0000
0000
1c00
1400
ff80
8080
bf80
be00
8200
be00
a000
bf80
8080
ff80
0000
0000
0000
0000
ENDCHAR
STARTCHAR C0014
ENCODING 20
SWIDTH 666 0
DWIDTH 10 0
BBX 10 18 0 -4
BITMAP
0000
0000
7700
5500
ff80
8080
bf80
bf00
8100
bf00
a000
bf80
8080
ff80
0000
0000
0000
0000
ENDCHAR
STARTCHAR C0015
ENCODING 21
SWIDTH 666 0
DWIDTH 10 0
BBX 10 18 0 -4
BITMAP
0000
0000
0000
ff80
8080
bf80
a000
bf00
8100
bf00
a000
bf80
8080
f780
1a80
0d80
0700
0000
ENDCHAR
STARTCHAR C0016
ENCODING 22
SWIDTH 666 0
DWIDTH 10 0
BBX 10 18 0 -4
BITMAP
0000
0000
3e00
2a00
f780
8080
bf80
bf00
8100
bf00
a000
bf80
8080
ff80
0000
0000
0000
0000
ENDCHAR
STARTCHAR C0017
ENCODING 23
SWIDTH 666 0
DWIDTH 10 0
BBX 10 18 0 -4
BITMAP
0000
3f00
2d00
2d00
2d00
2d00
2d00
2d00
2d00
2d00
2d00
2d00
2d00
3f00
0000
0000
0000
0000
ENDCHAR
STARTCHAR C0018
ENCODING 24
SWIDTH 666 0
DWIDTH 10 0
BBX 10 18 0 -4
BITMAP
0000
0000
1c00
3600
2b00
6180
de80
b380
bf80
b080
be80
de80
6180
3f00
0000
0000
0000
0000
ENDCHAR
STARTCHAR C0019
ENCODING 25
SWIDTH 666 0
DWIDTH 10 0
BBX 10 18 0 -4
BITMAP
0000
0000
7700
5d00
6300
6180
de80
b380
bf80
b080
be80
de80
6180
3f00
0000
0000
0000
0000
ENDCHAR
STARTCHAR C001a
ENCODING 26
SWIDTH 666 0
DWIDTH 10 0
BBX 10 18 0 -4
BITMAP
0000
0000
1c00
1400
3f00
6180
de80
b380
bf80
b080
be80
de80
6180
3f00
0000
0000
0000
0000
ENDCHAR
STARTCHAR C001b
ENCODING 27
SWIDTH 666 0
DWIDTH 10 0
BBX 10 18 0 -4
BITMAP
0000
0000
0000
3f00
6180
de80
b380
bf80
b080
be80
b280
de80
6180
7b00
5a00
6600
3c00
0000
ENDCHAR
STARTCHAR C001c
ENCODING 28
SWIDTH 666 0
DWIDTH 10 0
BBX 10 18 0 -4
BITMAP
0000
0000
1c00
f780
aa80
be80
a280
be80
8080
be80
a280
a280
a280
e380
0000
0000
0000
0000
ENDCHAR
STARTCHAR C001d
ENCODING 29
SWIDTH 666 0
DWIDTH 10 0
BBX 10 18 0 -4
BITMAP
0000
0000
3800
2c00
7700
4100
7700
1400
1400
1400
1400
7700
4100
7f00
0000
0000
0000
0000
ENDCHAR
STARTCHAR C001e
ENCODING 30
SWIDTH 666 0
DWIDTH 10 0
BBX 10 18 0 -4
BITMAP
0000
0000
0e00
1a00
7700
4100
7700
1400
1400
1400
1400
7700
4100
7f00
0000
0000
0000
0000
ENDCHAR
STARTCHAR C001f
ENCODING 31
SWIDTH 666 0
DWIDTH 10 0
BBX 10 18 0 -4
BITMAP
0000
0000
1c00
3600
6b00
4100
7700
1400
1400
1400
1400
7700
4100
7f00
0000
0000
0000
0000
ENDCHAR
STARTCHAR C0020
ENCODING 32
SWIDTH 666 0
DWIDTH 10 0
BBX 10 18 0 -4
BITMAP
0000
0000
7f00
cd00
b300
c100
7700
1400
1400
1400
1400
7700
4100
7f00
0000
0000
0000
0000
ENDCHAR
STARTCHAR C0021
ENCODING 33
SWIDTH 666 0
DWIDTH 10 0
BBX 10 18 0 -4
BITMAP
0000
0000
ff80
8080
ff80
4100
7700
1400
1400
1400
1400
7700
4100
7f00
0000
0000
0000
0000
ENDCHAR
STARTCHAR C0022
ENCODING 34
SWIDTH 666 0
DWIDTH 10 0
BBX 10 18 0 -4
BITMAP
0000
0000
1c00
1400
7f00
4100
7700
1400
1400
1400
1400
7700
4100
7f00
0000
0000
0000
0000
ENDCHAR
STARTCHAR C0023
ENCODING 35
SWIDTH 666 0
DWIDTH 10 0
BBX 10 18 0 -4
BITMAP
0000
0000
7700
5500
7f00
4100
7700
1400
1400
1400
1400
7700
4100
7f00
0000
0000
0000
0000
ENDCHAR
STARTCHAR C0024
ENCODING 36
SWIDTH 666 0
DWIDTH 10 0
BBX 10 18 0 -4
BITMAP
0000
0000
0000
7f00
4100
7700
1400
1400
1400
1400
1400
7700
4100
7780
2e80
3180
1f00
0000
ENDCHAR
STARTCHAR C0025
ENCODING 37
SWIDTH 666 0
DWIDTH 10 0
BBX 10 18 0 -4
BITMAP
0000
0000
1c00
3600
6b00
4100
7d00
0500
0500
e500
a500
bd00
c300
7e00
0000
0000
0000
0000
ENDCHAR
STARTCHAR C0026
ENCODING 38
SWIDTH 666 0
DWIDTH 10 0
BBX 10 18 0 -4
BITMAP
0000
0000
0000
e380
a680
ad80
bb00
b600
8c00
b600
bb00
bd80
ae80
eb80
a800
d800
7000
0000
ENDCHAR
STARTCHAR C0027
ENCODING 39
SWIDTH 666 0
DWIDTH 10 0
BBX 10 18 0 -4
BITMAP
0000
0000
0700
fd00
8b00
de00
5000
5000
5000
5000
5380
de80
8080
ff80
0000
0000
0000
0000
ENDCHAR
STARTCHAR C0028
ENCODING 40
SWIDTH 666 0
DWIDTH 10 0
BBX 10 18 0 -4
BITMAP
0000
0000
0000
f800
8800
d800
5000
5000
5000
5000
5380
de80
8080
f780
7a00
5a00
6600
3c00
ENDCHAR
STARTCHAR C0029
ENCODING 41
SWIDTH 666 0
DWIDTH 10 0
BBX 10 18 0 -4
BITMAP
0000
0000
0f80
fa80
8d80
df00
5000
5000
5000
5000
5380
de80
8080
ff80
0000
0000
0000
0000
ENDCHAR
STARTCHAR C002a
ENCODING 42
SWIDTH 666 0
DWIDTH 10 0
BBX 10 18 0 -4
BITMAP
0000
0000
0e00
fb80
b680
be80
9a80
ae80
b680
ba80
ac80
a680
a280
e380
0000
0000
0000
0000
ENDCHAR
STARTCHAR C002b
ENCODING 43
SWIDTH 666 0
DWIDTH 10 0
BBX 10 18 0 -4
BITMAP
0000
0000
7f00
cd80
b280
be80
9a80
ae80
b680
ba80
ac80
a680
a280
e380
0000
0000
0000
0000
ENDCHAR
STARTCHAR C002c
ENCODING 44
SWIDTH 666 0
DWIDTH 10 0
BBX 10 18 0 -4
BITMAP
0000
0000
0000
e380
a280
b280
9a80
ae80
b680
ba80
ac80
a680
ba80
eb80
a800
d800
7000
0000
ENDCHAR
STARTCHAR C002d
ENCODING 45
SWIDTH 666 0
DWIDTH 10 0
BBX 10 18 0 -4
BITMAP
0000
0000
3e00
eb80
b680
be80
9a80
ae80
b680
ba80
ac80
a680
a280
e380
0000
0000
0000
0000
ENDCHAR
STARTCHAR C002e
ENCODING 46
SWIDTH 666 0
DWIDTH 10 0
BBX 10 18 0 -4
BITMAP
0000
0000
1c00
1600
3a00
6300
dd80
b680
a280
a280
b680
dd80
6300
3e00
0000
0000
0000
0000
ENDCHAR
STARTCHAR C002f
ENCODING 47
SWIDTH 666 0
DWIDTH 10 0
BBX 10 18 0 -4
BITMAP
0000
0000
0e00
1a00
3600
6300
dd80
b680
a280
a280
b680
dd80
6300
3e00
0000
0000
0000
0000
ENDCHAR
STARTCHAR C0030
ENCODING 48
SWIDTH 666 0
DWIDTH 10 0
BBX 10 18 0 -4
BITMAP
0000
0000
1c00
3600
2a00
6300
dd80
b680
a280
a280
b680
dd80
6300
3e00
0000
0000
0000
0000
ENDCHAR
STARTCHAR C0031
ENCODING 49
SWIDTH 666 0
DWIDTH 10 0
BBX 10 18 0 -4
BITMAP
0000
0000
7f00
cd00
b300
e300
dd80
b680
a280
a280
b680
dd80
6300
3e00
0000
0000
0000
0000
ENDCHAR
STARTCHAR C0032
ENCODING 50
SWIDTH 666 0
DWIDTH 10 0
BBX 10 18 0 -4
BITMAP
0000
0000
ff80
8080
ff80
6300
dd80
b680
a280
a280
b680
dd80
6300
3e00
0000
0000
0000
0000
ENDCHAR
STARTCHAR C0033
ENCODING 51
SWIDTH 666 0
DWIDTH 10 0
BBX 10 18 0 -4
BITMAP
0000
0000
e380
be80
e380
dd80
b680
a280
a280
a280
b680
dd80
6300
3e00
0000
0000
0000
0000
ENDCHAR
STARTCHAR C0034
ENCODING 52
SWIDTH 666 0
DWIDTH 10 0
BBX 10 18 0 -4
BITMAP
0000
0000
7380
d680
bd80
e300
dd80
b680
a280
a280
b680
dd80
6300
3e00
0000
0000
0000
0000
ENDCHAR
STARTCHAR C0035
ENCODING 53
SWIDTH 666 0
DWIDTH 10 0
BBX 10 18 0 -4
BITMAP
0000
0000
1c00
3400
ef00
8180
be80
a280
be80
8180
bb00
ad80
a680
e380
0000
0000
0000
0000
ENDCHAR
STARTCHAR C0036
ENCODING 54
SWIDTH 666 0
DWIDTH 10 0
BBX 10 18 0 -4
BITMAP
0000
0000
0000
ff00
8180
be80
a280
be80
8180
b700
bb00
ad80
be80
eb80
a800
d800
7000
0000
ENDCHAR
STARTCHAR C0037
ENCODING 55
SWIDTH 666 0
DWIDTH 10 0
BBX 10 18 0 -4
BITMAP
0000
0000
3e00
2a00
f700
8180
be80
a280
be80
8180
bb00
ad80
a680
e380
0000
0000
0000
0000
ENDCHAR
STARTCHAR C0038
ENCODING 56
SWIDTH 666 0
DWIDTH 10 0
BBX 10 18 0 -4
BITMAP
0000
0000
1c00
3400
6f00
c180
be80
bf80
c180
7e80
e280
be80
c180
7f00
0000
0000
0000
0000
ENDCHAR
STARTCHAR C0039
ENCODING 57
SWIDTH 666 0
DWIDTH 10 0
BBX 10 18 0 -4
BITMAP
0000
0000
1c00
3600
6b00
c180
be80
bf80
c180
7e80
e280
be80
c180
7f00
0000
0000
0000
0000
ENDCHAR
STARTCHAR C003a
ENCODING 58
SWIDTH 666 0
DWIDTH 10 0
BBX 10 18 0 -4
BITMAP
0000
0000
0000
0000
7f00
c180
be80
bf80
c180
7e80
e280
be80
c180
7b00
2d00
3300
1e00
0000
ENDCHAR
STARTCHAR C003b
ENCODING 59
SWIDTH 666 0
DWIDTH 10 0
BBX 10 18 0 -4
BITMAP
0000
0000
3e00
2a00
7700
c180
be80
bf80
c180
7e80
e280
be80
c180
7f00
0000
0000
0000
0000
ENDCHAR
STARTCHAR C003c
ENCODING 60
SWIDTH 666 0
DWIDTH 10 0
BBX 10 18 0 -4
BITMAP
0000
0000
ff80
8080
b680
f780
1400
1400
1400
1400
1400
3700
2100
7b00
5a00
6600
3c00
0000
ENDCHAR
STARTCHAR C003d
ENCODING 61
SWIDTH 666 0
DWIDTH 10 0
BBX 10 18 0 -4
BITMAP
0000
0000
3e00
2a00
f780
8080
b680
f780
1400
1400
1400
3600
2200
3e00
0000
0000
0000
0000
ENDCHAR
STARTCHAR C003e
ENCODING 62
SWIDTH 666 0
DWIDTH 10 0
BBX 10 18 0 -4
BITMAP
0000
0000
fb80
ae80
b680
be80
a280
a280
a280
a280
a280
be80
c180
7f00
0000
0000
0000
0000
ENDCHAR
STARTCHAR C003f
ENCODING 63
SWIDTH 666 0
DWIDTH 10 0
BBX 10 18 0 -4
BITMAP
0000
0000
ef80
ba80
b680
be80
a280
a280
a280
a280
a280
be80
c180
7f00
0000
0000
0000
0000
ENDCHAR
STARTCHAR C0040
ENCODING 64
SWIDTH 666 0
DWIDTH 10 0
BBX 10 18 0 -4
BITMAP
0000
0000
ff80
b680
aa80
be80
a280
a280
a280
a280
a280
be80
c180
7f00
0000
0000
0000
0000
ENDCHAR
STARTCHAR C0041
ENCODING 65
SWIDTH 666 0
DWIDTH 10 0
BBX 10 18 0 -4
BITMAP
0000
0000
7f00
cd00
b380
fe80
a280
a280
a280
a280
a280
be80
c180
7f00
0000
0000
0000
0000
ENDCHAR
STARTCHAR C0042
ENCODING 66
SWIDTH 666 0
DWIDTH 10 0
BBX 10 18 0 -4
BITMAP
0000
0000
ff80
8080
ff80
a280
a280
a280
a280
a280
a280
be80
c180
7f00
0000
0000
0000
0000
ENDCHAR
STARTCHAR C0043
ENCODING 67
SWIDTH 666 0
DWIDTH 10 0
BBX 10 18 0 -4
BITMAP
0000
0000
7700
5d00
e380
be80
a280
a280
a280
a280
a280
be80
c180
7f00
0000
0000
0000
0000
ENDCHAR
STARTCHAR C0044
ENCODING 68
SWIDTH 666 0
DWIDTH 10 0
BBX 10 18 0 -4
BITMAP
0000
0000
e380
a280
e380
a280
a280
a280
a280
a280
a280
be80
c180
7f00
0000
0000
0000
0000
ENDCHAR
STARTCHAR C0045
ENCODING 69
SWIDTH 666 0
DWIDTH 10 0
BBX 10 18 0 -4
BITMAP
0000
0000
1c00
f780
aa80
b680
be80
a280
a280
a280
a280
be80
c180
7f00
0000
0000
0000
0000
ENDCHAR
STARTCHAR C0046
ENCODING 70
SWIDTH 666 0
DWIDTH 10 0
BBX 10 18 0 -4
BITMAP
0000
0000
1f80
f680
ad80
be80
a280
a280
a280
a280
a280
be80
c180
7f00
0000
0000
0000
0000
ENDCHAR
STARTCHAR C0047
ENCODING 71
SWIDTH 666 0
DWIDTH 10 0
BBX 10 18 0 -4
BITMAP
0000
0000
e380
a280
a280
a280
a280
a280
a280
a280
a280
be80
c180
6f00
2d00
3300
1e00
0000
ENDCHAR
STARTCHAR C0048
ENCODING 72
SWIDTH 666 0
DWIDTH 10 0
BBX 10 18 0 -4
BITMAP
0000
0000
1c00
3600
eb80
be80
a280
a280
be80
b680
b680
aa80
dd80
7700
0000
0000
0000
0000
ENDCHAR
STARTCHAR C0049
ENCODING 73
SWIDTH 666 0
DWIDTH 10 0
BBX 10 18 0 -4
BITMAP
0000
0000
ef80
ba80
b680
dd80
6b00
3600
1400
1400
1400
7700
4100
7f00
0000
0000
0000
0000
ENDCHAR
STARTCHAR C004a
ENCODING 74
SWIDTH 666 0
DWIDTH 10 0
BBX 10 18 0 -4
BITMAP
0000
0000
ff80
b680
aa80
dd80
6b00
3600
1400
1400
1400
7700
4100
7f00
0000
0000
0000
0000
ENDCHAR
STARTCHAR C004b
ENCODING 75
SWIDTH 666 0
DWIDTH 10 0
BBX 10 18 0 -4
BITMAP
0000
0000
ff80
aa80
be80
dd80
6b00
3600
1400
1400
1400
7700
4100
7f00
0000
0000
0000
0000
ENDCHAR
STARTCHAR C004c
ENCODING 76
SWIDTH 666 0
DWIDTH 10 0
BBX 10 18 0 -4
BITMAP
0000
0000
0e00
1a00
f780
8080
fe80
0d80
1b00
3600
6c00
df80
8080
ff80
0000
0000
0000
0000
ENDCHAR
STARTCHAR C004d
ENCODING 77
SWIDTH 666 0
DWIDTH 10 0
BBX 10 18 0 -4
BITMAP
0000
0000
1c00
1400
ff80
8080
fe80
0d80
1b00
3600
6c00
df80
8080
ff80
0000
0000
0000
0000
ENDCHAR
STARTCHAR C004e
ENCODING 78
SWIDTH 666 0
DWIDTH 10 0
BBX 10 18 0 -4
BITMAP
0000
0000
3e00
2a00
f780
8080
fe80
0d80
1b00
3600
6c00
df80
8080
ff80
0000
0000
0000
0000
ENDCHAR
STARTCHAR C004f
ENCODING 79
SWIDTH 666 0
DWIDTH 10 0
BBX 10 18 0 -4
BITMAP
0000
0000
0000
0000
0000
0000
0000
7f00
4100
6300
3600
1c00
0000
0000
0000
0000
0000
0000
ENDCHAR
STARTCHAR C0050
ENCODING 80
SWIDTH 666 0
DWIDTH 10 0
BBX 10 18 0 -4
BITMAP
0000
0000
1c00
1600
1a00
7f00
c180
be80
fe80
c080
be80
bc80
c280
7f80
0000
0000
0000
0000
ENDCHAR
STARTCHAR C0051
ENCODING 81
SWIDTH 666 0
DWIDTH 10 0
BBX 10 18 0 -4
BITMAP
0000
0000
1c00
3400
2c00
7f00
c180
be80
fe80
c080
be80
bc80
c280
7f80
0000
0000
0000
0000
ENDCHAR
STARTCHAR C0052
ENCODING 82
SWIDTH 666 0
DWIDTH 10 0
BBX 10 18 0 -4
BITMAP
0000
0000
1c00
3600
2a00
7f00
c180
be80
fe80
c080
be80
bc80
c280
7f80
0000
0000
0000
0000
ENDCHAR
STARTCHAR C0053
ENCODING 83
SWIDTH 666 0
DWIDTH 10 0
BBX 10 18 0 -4
BITMAP
0000
0000
7f00
cd00
b300
ff00
c180
be80
fe80
c080
be80
bc80
c280
7f80
0000
0000
0000
0000
ENDCHAR
STARTCHAR C0054
ENCODING 84
SWIDTH 666 0
DWIDTH 10 0
BBX 10 18 0 -4
BITMAP
0000
0000
ff80
8080
ff80
7f00
c180
be80
fe80
c080
be80
bc80
c280
7f80
0000
0000
0000
0000
ENDCHAR
STARTCHAR C0055
ENCODING 85
SWIDTH 666 0
DWIDTH 10 0
BBX 10 18 0 -4
BITMAP
0000
0000
7700
5d00
6300
7f00
c180
be80
fe80
c080
be80
bc80
c280
7f80
0000
0000
0000
0000
ENDCHAR
STARTCHAR C0056
ENCODING 86
SWIDTH 666 0
DWIDTH 10 0
BBX 10 18 0 -4
BITMAP
0000
0000
7700
5500
7700
7f00
c180
be80
fe80
c080
be80
bc80
c280
7f80
0000
0000
0000
0000
ENDCHAR
STARTCHAR C0057
ENCODING 87
SWIDTH 666 0
DWIDTH 10 0
BBX 10 18 0 -4
BITMAP
0000
0000
1e00
3300
2d00
7300
c180
be80
fe80
c080
be80
bc80
c280
7f80
0000
0000
0000
0000
ENDCHAR
STARTCHAR C0058
ENCODING 88
SWIDTH 666 0
DWIDTH 10 0
BBX 10 18 0 -4
BITMAP
0000
0000
0000
0000
0000
7f00
c180
be80
fe80
c080
be80
bc80
c280
6f80
2d00
3300
1e00
0000
ENDCHAR
STARTCHAR C0059
ENCODING 89
SWIDTH 666 0
DWIDTH 10 0
BBX 10 18 0 -4
BITMAP
0000
0000
0e00
1a00
1600
1c00
3f00
6180
de80
b380
b380
de80
6180
3f00
0000
0000
0000
0000
ENDCHAR
STARTCHAR C005a
ENCODING 90
SWIDTH 666 0
DWIDTH 10 0
BBX 10 18 0 -4
BITMAP
0000
0000
1c00
3600
2a00
3e00
3f00
6180
de80
b380
b380
de80
6180
3f00
0000
0000
0000
0000
ENDCHAR
STARTCHAR C005b
ENCODING 91
SWIDTH 666 0
DWIDTH 10 0
BBX 10 18 0 -4
BITMAP
0000
0000
1e00
1200
1200
1e00
3f00
6180
de80
b380
b380
de80
6180
3f00
0000
0000
0000
0000
ENDCHAR
STARTCHAR C005c
ENCODING 92
SWIDTH 666 0
DWIDTH 10 0
BBX 10 18 0 -4
BITMAP
0000
0000
0000
0000
0000
0000
3f00
6180
de80
b380
b380
de80
6180
7b00
5d00
6300
3e00
0000
ENDCHAR
STARTCHAR C005d
ENCODING 93
SWIDTH 666 0
DWIDTH 10 0
BBX 10 18 0 -4
BITMAP
0000
0000
3e00
2a00
3600
1c00
3f00
6180
de80
b380
b380
de80
6180
3f00
0000
0000
0000
0000
ENDCHAR
STARTCHAR C005e
ENCODING 94
SWIDTH 666 0
DWIDTH 10 0
BBX 10 18 0 -4
BITMAP
0000
0000
3f80
2a80
3680
1e80
3e80
6280
dc80
b680
b680
dc80
6280
3f80
0000
0000
0000
0000
ENDCHAR
STARTCHAR C005f
ENCODING 95
SWIDTH 666 0
DWIDTH 10 0
BBX 10 18 0 -4
BITMAP
0000
0000
3800
2c00
3400
3e00
6300
dd80
be80
8080
bf80
dd00
6300
3e00
0000
0000
0000
0000
ENDCHAR
STARTCHAR C0060
ENCODING 96
SWIDTH 666 0
DWIDTH 10 0
BBX 10 18 0 -4
BITMAP
0000
0000
0e00
1a00
1600
3e00
6300
dd80
be80
8080
bf80
dd00
6300
3e00
0000
0000
0000
0000
ENDCHAR
STARTCHAR C0061
ENCODING 97
SWIDTH 666 0
DWIDTH 10 0
BBX 10 18 0 -4
BITMAP
0000
0000
1c00
3600
2a00
3e00
6300
dd80
be80
8080
bf80
dd00
6300
3e00
0000
0000
0000
0000
ENDCHAR
STARTCHAR C0062
ENCODING 98
SWIDTH 666 0
DWIDTH 10 0
BBX 10 18 0 -4
BITMAP
0000
0000
ff80
8080
ff80
3e00
6300
dd80
be80
8080
bf80
dd00
6300
3e00
0000
0000
0000
0000
ENDCHAR
STARTCHAR C0063
ENCODING 99
SWIDTH 666 0
DWIDTH 10 0
BBX 10 18 0 -4
BITMAP
0000
0000
1c00
1400
1c00
3e00
6300
dd80
be80
8080
bf80
dd00
6300
3e00
0000
0000
0000
0000
ENDCHAR
STARTCHAR C0064
ENCODING 100
SWIDTH 666 0
DWIDTH 10 0
BBX 10 18 0 -4
BITMAP
0000
0000
7700
5500
7700
3e00
6300
dd80
be80
8080
bf80
dd00
6300
3e00
0000
0000
0000
0000
ENDCHAR
STARTCHAR C0065
ENCODING 101
SWIDTH 666 0
DWIDTH 10 0
BBX 10 18 0 -4
BITMAP
0000
0000
0000
0000
0000
3e00
6300
dd80
be80
8080
bf80
dd00
6300
3700
1500
1b00
0e00
0000
ENDCHAR
STARTCHAR C0066
ENCODING 102
SWIDTH 666 0
DWIDTH 10 0
BBX 10 18 0 -4
BITMAP
0000
0000
3e00
2a00
3600
3e00
6300
dd80
be80
8080
bf80
dd00
6300
3e00
0000
0000
0000
0000
ENDCHAR
STARTCHAR C0067
ENCODING 103
SWIDTH 666 0
DWIDTH 10 0
BBX 10 18 0 -4
BITMAP
0000
0000
0e00
1a00
1600
1c00
3f80
6280
dc80
b680
b680
dc80
6280
7e80
5e80
6180
3f00
0000
ENDCHAR
STARTCHAR C0068
ENCODING 104
SWIDTH 666 0
DWIDTH 10 0
BBX 10 18 0 -4
BITMAP
0000
0000
1c00
3600
2a00
3e00
3f80
6280
dc80
b680
b680
dc80
6280
7e80
5e80
6180
3f00
0000
ENDCHAR
STARTCHAR C0069
ENCODING 105
SWIDTH 666 0
DWIDTH 10 0
BBX 10 18 0 -4
BITMAP
0000
0000
7700
5d00
6300
3e00
3f80
6280
dc80
b680
b680
dc80
6280
7e80
5e80
6180
3f00
0000
ENDCHAR
STARTCHAR C006a
ENCODING 106
SWIDTH 666 0
DWIDTH 10 0
BBX 10 18 0 -4
BITMAP
0000
0000
1e00
1200
1200
1e00
3f80
6280
dc80
b680
b680
dc80
6280
7e80
5e80
6180
3f00
0000
ENDCHAR
STARTCHAR C006b
ENCODING 107
SWIDTH 666 0
DWIDTH 10 0
BBX 10 18 0 -4
BITMAP
0000
0000
0000
3f00
2100
2f00
2300
3d00
2300
3e00
0000
0000
0000
0000
0000
0000
0000
0000
ENDCHAR
STARTCHAR C006c
ENCODING 108
SWIDTH 666 0
DWIDTH 10 0
BBX 10 18 0 -4
BITMAP
0000
0000
ee00
bb00
b500
bf00
bf00
a180
9e80
b280
a280
a280
a280
e380
0000
0000
0000
0000
ENDCHAR
STARTCHAR C006d
ENCODING 109
SWIDTH 666 0
DWIDTH 10 0
BBX 10 18 0 -4
BITMAP
0000
0000
3800
2c00
3400
1c00
7c00
4400
7400
1400
1400
7700
4100
7f00
0000
0000
0000
0000
ENDCHAR
STARTCHAR C006e
ENCODING 110
SWIDTH 666 0
DWIDTH 10 0
BBX 10 18 0 -4
BITMAP
0000
0000
0e00
1a00
1600
1c00
7c00
4400
7400
1400
1400
7700
4100
7f00
0000
0000
0000
0000
ENDCHAR
STARTCHAR C006f
ENCODING 111
SWIDTH 666 0
DWIDTH 10 0
BBX 10 18 0 -4
BITMAP
0000
0000
1c00
3600
2a00
3e00
7c00
4400
7400
1400
1400
7700
4100
7f00
0000
0000
0000
0000
ENDCHAR
STARTCHAR C0070
ENCODING 112
SWIDTH 666 0
DWIDTH 10 0
BBX 10 18 0 -4
BITMAP
0000
0000
7f00
cd00
b300
fe00
7c00
4400
7400
1400
1400
7700
4100
7f00
0000
0000
0000
0000
ENDCHAR
STARTCHAR C0071
ENCODING 113
SWIDTH 666 0
DWIDTH 10 0
BBX 10 18 0 -4
BITMAP
0000
0000
ff80
8080
ff80
0000
7c00
4400
7400
1400
1400
7700
4100
7f00
0000
0000
0000
0000
ENDCHAR
STARTCHAR C0072
ENCODING 114
SWIDTH 666 0
DWIDTH 10 0
BBX 10 18 0 -4
BITMAP
0000
0000
1c00
3600
6300
4100
7700
1400
1400
7700
4100
6300
3600
1c00
0000
0000
0000
0000
ENDCHAR
STARTCHAR C0073
ENCODING 115
SWIDTH 666 0
DWIDTH 10 0
BBX 10 18 0 -4
BITMAP
0000
0000
7700
5500
7700
0000
7c00
4400
7400
1400
1400
7700
4100
7f00
0000
0000
0000
0000
ENDCHAR
STARTCHAR C0074
ENCODING 116
SWIDTH 666 0
DWIDTH 10 0
BBX 10 18 0 -4
BITMAP
0000
0000
1c00
1400
1c00
0000
7c00
4400
7400
1400
1400
7700
4100
7b00
1700
1900
0f00
0000
ENDCHAR
STARTCHAR C0075
ENCODING 117
SWIDTH 666 0
DWIDTH 10 0
BBX 10 18 0 -4
BITMAP
0000
0000
1c00
3600
2a00
3e00
7c00
4400
7400
1400
1400
1400
1400
1400
f400
8c00
f800
0000
ENDCHAR
STARTCHAR C0076
ENCODING 118
SWIDTH 666 0
DWIDTH 10 0
BBX 10 18 0 -4
BITMAP
0000
0000
e000
a000
a000
a700
ad00
bb00
b600
8c00
b600
bb80
8880
ef80
a800
d800
7000
0000
ENDCHAR
STARTCHAR C0077
ENCODING 119
SWIDTH 666 0
DWIDTH 10 0
BBX 10 18 0 -4
BITMAP
0000
0000
0700
7d00
4b00
6e00
2800
2800
2800
2800
2800
6c00
4400
7c00
0000
0000
0000
0000
ENDCHAR
STARTCHAR C0078
ENCODING 120
SWIDTH 666 0
DWIDTH 10 0
BBX 10 18 0 -4
BITMAP
0000
0000
7800
4800
6800
2800
2800
2800
2800
2800
2800
6e00
4200
7a00
2a00
3600
1c00
0000
ENDCHAR
STARTCHAR C0079
ENCODING 121
SWIDTH 666 0
DWIDTH 10 0
BBX 10 18 0 -4
BITMAP
0000
0000
1f00
7500
4b00
6e00
2800
2800
2800
2800
2800
6c00
4400
7c00
0000
0000
0000
0000
ENDCHAR
STARTCHAR C007a
ENCODING 122
SWIDTH 666 0
DWIDTH 10 0
BBX 10 18 0 -4
BITMAP
0000
0000
0e00
1a00
1600
1c00
ff00
a180
9e80
b280
a280
a280
a280
e380
0000
0000
0000
0000
ENDCHAR
STARTCHAR C007b
ENCODING 123
SWIDTH 666 0
DWIDTH 10 0
BBX 10 18 0 -4
BITMAP
0000
0000
7f00
cd00
b300
fe00
ff00
a180
9e80
b280
a280
a280
a280
e380
0000
0000
0000
0000
ENDCHAR
STARTCHAR C007c
ENCODING 124
SWIDTH 666 0
DWIDTH 10 0
BBX 10 18 0 -4
BITMAP
0000
0000
0000
0000
0000
ff00
a180
9e80
b280
a280
a280
be80
b680
f780
5400
6c00
3800
0000
ENDCHAR
STARTCHAR C007d
ENCODING 125
SWIDTH 666 0
DWIDTH 10 0
BBX 10 18 0 -4
BITMAP
0000
0000
3e00
2a00
3600
1c00
ff00
a180
9e80
b280
a280
a280
a280
e380
0000
0000
0000
0000
ENDCHAR
STARTCHAR C007e
ENCODING 126
SWIDTH 666 0
DWIDTH 10 0
BBX 10 18 0 -4
BITMAP
0000
0000
3800
2c00
3400
1c00
3e00
6300
dd80
b680
b680
dd80
6300
3e00
0000
0000
0000
0000
ENDCHAR
STARTCHAR C007f
ENCODING 127
SWIDTH 666 0
DWIDTH 10 0
BBX 10 18 0 -4
BITMAP
0000
0000
0e00
1a00
1600
1c00
3e00
6300
dd80
b680
b680
dd80
6300
3e00
0000
0000
0000
0000
ENDCHAR
STARTCHAR C0080
ENCODING 128
SWIDTH 666 0
DWIDTH 10 0
BBX 10 18 0 -4
BITMAP
0000
0000
1c00
3600
2a00
3e00
3e00
6300
dd80
b680
b680
dd80
6300
3e00
0000
0000
0000
0000
ENDCHAR
STARTCHAR C0081
ENCODING 129
SWIDTH 666 0
DWIDTH 10 0
BBX 10 18 0 -4
BITMAP
0000
0000
7f00
cd00
b300
fe00
3e00
6300
dd80
b680
b680
dd80
6300
3e00
0000
0000
0000
0000
ENDCHAR
STARTCHAR C0082
ENCODING 130
SWIDTH 666 0
DWIDTH 10 0
BBX 10 18 0 -4
BITMAP
0000
0000
ff80
8080
ff80
3e00
6300
dd80
b680
a280
b680
dd80
6300
3e00
0000
0000
0000
0000
ENDCHAR
STARTCHAR C0083
ENCODING 131
SWIDTH 666 0
DWIDTH 10 0
BBX 10 18 0 -4
BITMAP
0000
0000
7700
5500
7700
3e00
6300
dd80
b680
a280
b680
dd80
6300
3e00
0000
0000
0000
0000
ENDCHAR
STARTCHAR C0084
ENCODING 132
SWIDTH 666 0
DWIDTH 10 0
BBX 10 18 0 -4
BITMAP
0000
0000
3f00
6d00
5b00
7e00
3e00
6300
dd80
b680
b680
dd80
6300
3e00
0000
0000
0000
0000
ENDCHAR
STARTCHAR C0085
ENCODING 133
SWIDTH 666 0
DWIDTH 10 0
BBX 10 18 0 -4
BITMAP
0000
0000
0e00
1a00
1600
1c00
7f00
5180
4e80
5b80
5000
5000
5000
7000
0000
0000
0000
0000
ENDCHAR
STARTCHAR C0086
ENCODING 134
SWIDTH 666 0
DWIDTH 10 0
BBX 10 18 0 -4
BITMAP
0000
0000
0000
0000
0000
0000
7f00
5180
4e80
5b80
5000
5c00
5400
7400
5400
6c00
3800
0000
ENDCHAR
STARTCHAR C0087
ENCODING 135
SWIDTH 666 0
DWIDTH 10 0
BBX 10 18 0 -4
BITMAP
0000
0000
1f00
1500
1b00
0e00
7f00
5180
4e80
5b80
5000
5000
5000
5000
7000
0000
0000
0000
ENDCHAR
STARTCHAR C0088
ENCODING 136
SWIDTH 666 0
DWIDTH 10 0
BBX 10 18 0 -4
BITMAP
0000
0000
0e00
1a00
1600
1c00
7f00
c180
be80
c780
f980
be80
c180
7f00
0000
0000
0000
0000
ENDCHAR
STARTCHAR C0089
ENCODING 137
SWIDTH 666 0
DWIDTH 10 0
BBX 10 18 0 -4
BITMAP
0000
0000
1c00
3600
2a00
3e00
7f00
c180
be80
c780
f980
be80
c180
7f00
0000
0000
0000
0000
ENDCHAR
STARTCHAR C008a
ENCODING 138
SWIDTH 666 0
DWIDTH 10 0
BBX 10 18 0 -4
BITMAP
0000
0000
0000
0000
0000
0000
7f00
c180
be80
c780
f980
be80
c180
7b00
3d00
2d00
3300
1e00
ENDCHAR
STARTCHAR C008b
ENCODING 139
SWIDTH 666 0
DWIDTH 10 0
BBX 10 18 0 -4
BITMAP
0000
0000
3e00
2a00
3600
1c00
7f00
c180
be80
c780
f980
be80
c180
7f00
0000
0000
0000
0000
ENDCHAR
STARTCHAR C008c
ENCODING 140
SWIDTH 666 0
DWIDTH 10 0
BBX 10 18 0 -4
BITMAP
0000
0000
1c00
1400
1400
7700
4100
7700
1400
1400
1400
1700
1900
7b00
5a00
6600
3c00
0000
ENDCHAR
STARTCHAR C008d
ENCODING 141
SWIDTH 666 0
DWIDTH 10 0
BBX 10 18 0 -4
BITMAP
0000
0000
1f00
3500
2b00
ee00
8200
ee00
2800
2800
2800
2f00
3100
1f00
0000
0000
0000
0000
ENDCHAR
STARTCHAR C008e
ENCODING 142
SWIDTH 666 0
DWIDTH 10 0
BBX 10 18 0 -4
BITMAP
0000
0000
3800
2c00
3400
1c00
e380
a280
a280
a280
a680
bc80
c280
7f80
0000
0000
0000
0000
ENDCHAR
STARTCHAR C008f
ENCODING 143
SWIDTH 666 0
DWIDTH 10 0
BBX 10 18 0 -4
BITMAP
0000
0000
0e00
1a00
1600
1c00
e380
a280
a280
a280
a680
bc80
c280
7f80
0000
0000
0000
0000
ENDCHAR
STARTCHAR C0090
ENCODING 144
SWIDTH 666 0
DWIDTH 10 0
BBX 10 18 0 -4
BITMAP
0000
0000
1c00
3600
2a00
3e00
e380
a280
a280
a280
a680
bc80
c280
7f80
0000
0000
0000
0000
ENDCHAR
STARTCHAR C0091
ENCODING 145
SWIDTH 666 0
DWIDTH 10 0
BBX 10 18 0 -4
BITMAP
0000
0000
7f00
cd00
b300
fe00
e380
a280
a280
a280
a680
bc80
c280
7f80
0000
0000
0000
0000
ENDCHAR
STARTCHAR C0092
ENCODING 146
SWIDTH 666 0
DWIDTH 10 0
BBX 10 18 0 -4
BITMAP
0000
0000
ff80
8080
ff80
e380
a280
a280
a280
a280
a680
bc80
c280
7f80
0000
0000
0000
0000
ENDCHAR
STARTCHAR C0093
ENCODING 147
SWIDTH 666 0
DWIDTH 10 0
BBX 10 18 0 -4
BITMAP
0000
0000
7700
5d00
6300
3e00
e380
a280
a280
a280
a680
bc80
c280
7f80
0000
0000
0000
0000
ENDCHAR
STARTCHAR C0094
ENCODING 148
SWIDTH 666 0
DWIDTH 10 0
BBX 10 18 0 -4
BITMAP
0000
0000
7700
5500
7700
e380
a280
a280
a280
a280
a680
bc80
c280
7f80
0000
0000
0000
0000
ENDCHAR
STARTCHAR C0095
ENCODING 149
SWIDTH 666 0
DWIDTH 10 0
BBX 10 18 0 -4
BITMAP
0000
0000
1e00
3300
2d00
3300
ff80
a280
a280
a280
a680
bc80
c280
7f80
0000
0000
0000
0000
ENDCHAR
STARTCHAR C0096
ENCODING 150
SWIDTH 666 0
DWIDTH 10 0
BBX 10 18 0 -4
BITMAP
0000
0000
1f80
3680
2d80
3f00
e380
a280
a280
a280
a680
bc80
c280
7f80
0000
0000
0000
0000
ENDCHAR
STARTCHAR C0097
ENCODING 151
SWIDTH 666 0
DWIDTH 10 0
BBX 10 18 0 -4
BITMAP
0000
0000
0000
0000
0000
e380
a280
a280
a280
a280
a680
bc80
c280
6f80
2d00
3300
1e00
0000
ENDCHAR
STARTCHAR C0098
ENCODING 152
SWIDTH 666 0
DWIDTH 10 0
BBX 10 18 0 -4
BITMAP
0000
0000
1c00
3600
6b00
5d00
f780
a280
be80
b680
b680
aa80
dd80
7700
0000
0000
0000
0000
ENDCHAR
STARTCHAR C0099
ENCODING 153
SWIDTH 666 0
DWIDTH 10 0
BBX 10 18 0 -4
BITMAP
0000
0000
0e00
1a00
1600
1c00
e380
b680
d580
5d00
6b00
2a00
3600
3400
ec00
9800
f000
0000
ENDCHAR
STARTCHAR C009a
ENCODING 154
SWIDTH 666 0
DWIDTH 10 0
BBX 10 18 0 -4
BITMAP
0000
0000
1c00
3600
2a00
3e00
e380
b680
d580
5d00
6b00
2a00
3600
3400
ec00
9800
f000
0000
ENDCHAR
STARTCHAR C009b
ENCODING 155
SWIDTH 666 0
DWIDTH 10 0
BBX 10 18 0 -4
BITMAP
0000
0000
7700
5500
7700
0000
e380
b680
d580
5d00
6b00
2a00
3600
3400
ec00
9800
f000
0000
ENDCHAR
STARTCHAR C009c
ENCODING 156
SWIDTH 666 0
DWIDTH 10 0
BBX 10 18 0 -4
BITMAP
0000
0000
0e00
1a00
1600
1c00
ff80
8080
fb80
3600
6c00
df80
8080
ff80
0000
0000
0000
0000
ENDCHAR
STARTCHAR C009d
ENCODING 157
SWIDTH 666 0
DWIDTH 10 0
BBX 10 18 0 -4
BITMAP
0000
0000
1c00
1400
1c00
0000
ff80
8080
fb80
3600
6c00
df80
8080
ff80
0000
0000
0000
0000
ENDCHAR
STARTCHAR C009e
ENCODING 158
SWIDTH 666 0
DWIDTH 10 0
BBX 10 18 0 -4
BITMAP
0000
0000
3e00
2a00
3600
1c00
ff80
8080
fb80
3600
6c00
df80
8080
ff80
0000
0000
0000
0000
ENDCHAR
STARTCHAR C009f
ENCODING 159
SWIDTH 666 0
DWIDTH 10 0
BBX 10 18 0 -4
BITMAP
0000
0000
0000
0000
0000
0000
0000
0000
0000
ff80
8080
8080
8080
ff80
0000
0000
0000
0000
ENDCHAR
STARTCHAR C00a0
ENCODING 160
SWIDTH 666 0
DWIDTH 10 0
BBX 10 18 0 -4
BITMAP
0000
0000
0000
0000
0000
0000
0000
0000
0000
ff80
8080
8080
8080
ff80
0000
0000
0000
0000
ENDCHAR
STARTCHAR C00a1
ENCODING 161
SWIDTH 666 0
DWIDTH 10 0
BBX 10 18 0 -4
BITMAP
0000
0fc0
0840
0840
0840
0840
0840
0840
0840
0840
0840
0840
0840
0840
0840
0840
0840
0840
ENDCHAR
STARTCHAR C00a2
ENCODING 162
SWIDTH 666 0
DWIDTH 10 0
BBX 10 18 0 -4
BITMAP
0000
fc00
8400
8400
8400
8400
8400
8400
8400
8400
8400
8400
8400
8400
8400
8400
8400
8400
ENDCHAR
STARTCHAR C00a3
ENCODING 163
SWIDTH 666 0
DWIDTH 10 0
BBX 10 18 0 -4
BITMAP
0000
0000
0000
0000
0000
0000
0000
0000
0000
ffc0
8040
8040
8040
8040
8040
8040
8040
8040
ENDCHAR
STARTCHAR C00a4
ENCODING 164
SWIDTH 666 0
DWIDTH 10 0
BBX 10 18 0 -4
BITMAP
0000
ffc0
8040
8040
8040
8040
8040
8040
8040
8040
ffc0
0000
0000
0000
0000
0000
0000
0000
ENDCHAR
STARTCHAR C00a5
ENCODING 165
SWIDTH 666 0
DWIDTH 10 0
BBX 10 18 0 -4
BITMAP
0000
1fc0
1040
1040
1040
1040
1040
1040
1040
1040
1040
1040
1040
1040
1040
1040
1040
1040
ENDCHAR
STARTCHAR C00a6
ENCODING 166
SWIDTH 666 0
DWIDTH 10 0
BBX 10 18 0 -4
BITMAP
0000
fe00
8200
8200
8200
8200
8200
8200
8200
8200
8200
8200
8200
8200
8200
8200
8200
8200
ENDCHAR
STARTCHAR C00a7
ENCODING 167
SWIDTH 666 0
DWIDTH 10 0
BBX 10 18 0 -4
BITMAP
0000
0000
0000
0000
0000
0000
0000
0000
ffc0
8040
8040
8040
8040
8040
8040
8040
8040
8040
ENDCHAR
STARTCHAR C00a8
ENCODING 168
SWIDTH 666 0
DWIDTH 10 0
BBX 10 18 0 -4
BITMAP
0000
ffc0
8040
8040
8040
8040
8040
8040
8040
8040
8040
ffc0
0000
0000
0000
0000
0000
0000
ENDCHAR
STARTCHAR C00a9
ENCODING 169
SWIDTH 666 0
DWIDTH 10 0
BBX 10 18 0 -4
BITMAP
0000
0000
03c0
0640
0dc0
1b00
3600
2c00
3600
1b00
0dc0
0640
03c0
0000
0000
0000
0000
0000
ENDCHAR
STARTCHAR C00aa
ENCODING 170
SWIDTH 666 0
DWIDTH 10 0
BBX 10 18 0 -4
BITMAP
0000
0000
ffc0
8040
ff40
5d40
6b40
3740
6b40
5d40
ff40
8040
ffc0
0000
0000
0000
0000
0000
ENDCHAR
STARTCHAR C00ab
ENCODING 171
SWIDTH 666 0
DWIDTH 10 0
BBX 10 18 0 -4
BITMAP
0000
ffc0
8040
8040
9e40
9240
9240
9240
9240
9240
9240
9240
9240
9240
9240
9e40
8040
8040
ENDCHAR
STARTCHAR C00ac
ENCODING 172
SWIDTH 666 0
DWIDTH 10 0
BBX 10 18 0 -4
BITMAP
0000
0000
0000
0000
0000
0000
1c00
1400
1c00
0000
0000
0000
0000
0000
0000
0000
0000
0000
ENDCHAR
STARTCHAR C00ad
ENCODING 173
SWIDTH 666 0
DWIDTH 10 0
BBX 10 18 0 -4
BITMAP
0000
0000
0000
0000
3800
2c00
2600
2a00
2600
2c00
3800
0000
0000
0000
0000
0000
0000
0000
ENDCHAR
STARTCHAR C00ae
ENCODING 174
SWIDTH 666 0
DWIDTH 10 0
BBX 10 18 0 -4
BITMAP
0000
0000
0000
0f00
1900
3500
6d00
5d00
6d00
3500
1900
0f00
0000
0000
0000
0000
0000
0000
ENDCHAR
STARTCHAR C00af
ENCODING 175
SWIDTH 666 0
DWIDTH 10 0
BBX 10 18 0 -4
BITMAP
0000
0000
0000
0000
0e00
1a00
3600
2c00
3600
1a00
0e00
0000
0000
0000
0000
0000
0000
0000
ENDCHAR
STARTCHAR C00b0
ENCODING 176
SWIDTH 666 0
DWIDTH 10 0
BBX 10 18 0 -4
BITMAP
0000
1e00
1200
1200
1200
1200
f3c0
8040
8040
8040
8040
8040
8040
ffc0
0000
0000
0000
0000
ENDCHAR
STARTCHAR C00b1
ENCODING 177
SWIDTH 666 0
DWIDTH 10 0
BBX 10 18 0 -4
BITMAP
0000
0000
0000
0000
0000
0000
ffc0
8040
8040
8040
8040
8040
8040
f3c0
1200
1200
1200
1200
ENDCHAR
STARTCHAR C00b2
ENCODING 178
SWIDTH 666 0
DWIDTH 10 0
BBX 10 18 0 -4
BITMAP
0000
1e00
1200
1200
1200
1200
13c0
1040
1040
1040
1040
1040
1040
13c0
1200
1200
1200
1200
ENDCHAR
STARTCHAR C00b3
ENCODING 179
SWIDTH 666 0
DWIDTH 10 0
BBX 10 18 0 -4
BITMAP
0000
1e00
1200
1200
1200
1200
f200
8200
8200
8200
8200
8200
8200
f200
1200
1200
1200
1200
ENDCHAR
STARTCHAR C00b4
ENCODING 180
SWIDTH 666 0
DWIDTH 10 0
BBX 10 18 0 -4
BITMAP
0000
1e00
1200
3200
2600
6400
4c00
c800
9800
9000
9000
9800
c800
4c00
6400
2600
3200
1200
ENDCHAR
STARTCHAR C00b5
ENCODING 181
SWIDTH 666 0
DWIDTH 10 0
BBX 10 18 0 -4
BITMAP
0000
1e00
1200
1300
1900
0980
0c80
04c0
0640
0240
0240
0640
04c0
0c80
0980
1900
1300
1200
ENDCHAR
STARTCHAR C00b6
ENCODING 182
SWIDTH 666 0
DWIDTH 10 0
BBX 10 18 0 -4
BITMAP
0000
0000
0000
0000
0000
0000
0000
0000
0000
f3c0
9240
9e40
ccc0
4c80
6180
2100
3300
1200
ENDCHAR
STARTCHAR C00b7
ENCODING 183
SWIDTH 666 0
DWIDTH 10 0
BBX 10 18 0 -4
BITMAP
0000
1e00
1200
3300
2100
6180
4c80
ccc0
9e40
9240
f3c0
0000
0000
0000
0000
0000
0000
0000
ENDCHAR
STARTCHAR C00b8
ENCODING 184
SWIDTH 666 0
DWIDTH 10 0
BBX 10 18 0 -4
BITMAP
0000
1e00
1200
3200
2600
6400
4c00
c800
9800
9000
f000
0000
0000
0000
0000
0000
0000
0000
ENDCHAR
STARTCHAR C00b9
ENCODING 185
SWIDTH 666 0
DWIDTH 10 0
BBX 10 18 0 -4
BITMAP
0000
1e00
1200
1300
1900
0980
0c80
04c0
0640
0240
03c0
0000
0000
0000
0000
0000
0000
0000
ENDCHAR
STARTCHAR C00ba
ENCODING 186
SWIDTH 666 0
DWIDTH 10 0
BBX 10 18 0 -4
BITMAP
0000
0000
0000
0000
0000
0000
0000
0000
0000
f000
9000
9800
c800
4c00
6400
2600
3200
1200
ENDCHAR
STARTCHAR C00bb
ENCODING 187
SWIDTH 666 0
DWIDTH 10 0
BBX 10 18 0 -4
BITMAP
0000
0000
0000
0000
0000
0000
0000
0000
0000
03c0
0240
0640
04c0
0c80
0980
1900
1300
1200
ENDCHAR
STARTCHAR C00bc
ENCODING 188
SWIDTH 666 0
DWIDTH 10 0
BBX 10 18 0 -4
BITMAP
0000
1e00
1200
1200
1200
1200
f3c0
8040
8040
8040
8040
8040
8040
f3c0
1200
1200
1200
1200
ENDCHAR
STARTCHAR C00bd
ENCODING 189
SWIDTH 666 0
DWIDTH 10 0
BBX 10 18 0 -4
BITMAP
0000
0000
ff80
8080
be80
be80
c180
6300
3600
6b00
dd80
be80
8080
8080
ff80
0000
0000
0000
ENDCHAR
STARTCHAR C00be
ENCODING 190
SWIDTH 666 0
DWIDTH 10 0
BBX 10 18 0 -4
BITMAP
0000
0000
0000
0000
0000
3f00
6180
c0c0
8040
8040
c0c0
6180
3f00
0000
0000
0000
0000
0000
ENDCHAR
STARTCHAR C00bf
ENCODING 191
SWIDTH 666 0
DWIDTH 10 0
BBX 10 18 0 -4
BITMAP
0000
0000
0000
0000
0000
3f00
6180
c0c0
9e40
9e40
c0c0
6180
3f00
0000
0000
0000
0000
0000
ENDCHAR
STARTCHAR C00c0
ENCODING 192
SWIDTH 666 0
DWIDTH 10 0
BBX 10 18 0 -4
BITMAP
0000
0e00
0a00
0a00
0a00
0a00
0a00
0a00
0a00
0a00
0a00
0a00
0a00
0a00
0a00
0a00
0a00
0a00
ENDCHAR
STARTCHAR C00c1
ENCODING 193
SWIDTH 666 0
DWIDTH 10 0
BBX 10 18 0 -4
BITMAP
0000
0000
0000
0000
0000
0000
0000
0000
ffc0
8040
ffc0
0000
0000
0000
0000
0000
0000
0000
ENDCHAR
STARTCHAR C00c2
ENCODING 194
SWIDTH 666 0
DWIDTH 10 0
BBX 10 18 0 -4
BITMAP
0000
0000
0000
0000
0000
0000
0000
0000
0fc0
0840
0bc0
0a00
0a00
0a00
0a00
0a00
0a00
0a00
ENDCHAR
STARTCHAR C00c3
ENCODING 195
SWIDTH 666 0
DWIDTH 10 0
BBX 10 18 0 -4
BITMAP
0000
0000
0000
0000
0000
0000
0000
0000
fe00
8200
fa00
0a00
0a00
0a00
0a00
0a00
0a00
0a00
ENDCHAR
STARTCHAR C00c4
ENCODING 196
SWIDTH 666 0
DWIDTH 10 0
BBX 10 18 0 -4
BITMAP
0000
0e00
0a00
0a00
0a00
0a00
0a00
0a00
0bc0
0840
0fc0
0000
0000
0000
0000
0000
0000
0000
ENDCHAR
STARTCHAR C00c5
ENCODING 197
SWIDTH 666 0
DWIDTH 10 0
BBX 10 18 0 -4
BITMAP
0000
0e00
0a00
0a00
0a00
0a00
0a00
0a00
fa00
8200
fe00
0000
0000
0000
0000
0000
0000
0000
ENDCHAR
STARTCHAR C00c6
ENCODING 198
SWIDTH 666 0
DWIDTH 10 0
BBX 10 18 0 -4
BITMAP
0000
0e00
0a00
0a00
0a00
0a00
0a00
0a00
0bc0
0840
0bc0
0a00
0a00
0a00
0a00
0a00
0a00
0a00
ENDCHAR
STARTCHAR C00c7
ENCODING 199
SWIDTH 666 0
DWIDTH 10 0
BBX 10 18 0 -4
BITMAP
0000
0e00
0a00
0a00
0a00
0a00
0a00
0a00
fa00
8200
fa00
0a00
0a00
0a00
0a00
0a00
0a00
0a00
ENDCHAR
STARTCHAR C00c8
ENCODING 200
SWIDTH 666 0
DWIDTH 10 0
BBX 10 18 0 -4
BITMAP
0000
0000
0000
0000
0000
0000
0000
0000
ffc0
8040
fbc0
0a00
0a00
0a00
0a00
0a00
0a00
0a00
ENDCHAR
STARTCHAR C00c9
ENCODING 201
SWIDTH 666 0
DWIDTH 10 0
BBX 10 18 0 -4
BITMAP
0000
0e00
0a00
0a00
0a00
0a00
0a00
0a00
fbc0
8040
ffc0
0000
0000
0000
0000
0000
0000
0000
ENDCHAR
STARTCHAR C00ca
ENCODING 202
SWIDTH 666 0
DWIDTH 10 0
BBX 10 18 0 -4
BITMAP
0000
0e00
0a00
0a00
0a00
0a00
0a00
0a00
fbc0
8040
fbc0
0a00
0a00
0a00
0a00
0a00
0a00
0a00
ENDCHAR
STARTCHAR C00cb
ENCODING 203
SWIDTH 666 0
DWIDTH 10 0
BBX 10 18 0 -4
BITMAP
0000
0000
0000
0000
0000
0000
0700
0580
fcc0
8040
fcc0
0580
0700
0000
0000
0000
0000
0000
ENDCHAR
STARTCHAR C00cc
ENCODING 204
SWIDTH 666 0
DWIDTH 10 0
BBX 10 18 0 -4
BITMAP
0000
0000
0000
0000
0000
0000
3800
6800
cfc0
8040
cfc0
6800
3800
0000
0000
0000
0000
0000
ENDCHAR
STARTCHAR C00cd
ENCODING 205
SWIDTH 666 0
DWIDTH 10 0
BBX 10 18 0 -4
BITMAP
0000
0e00
1b00
3180
2080
3b80
0a00
0a00
0a00
0a00
0a00
0a00
0a00
0a00
0a00
0a00
0a00
0a00
ENDCHAR
STARTCHAR C00ce
ENCODING 206
SWIDTH 666 0
DWIDTH 10 0
BBX 10 18 0 -4
BITMAP
0000
0e00
0a00
0a00
0a00
0a00
0a00
0a00
0a00
0a00
0a00
0a00
0a00
0a00
3b80
2080
3180
1b00
ENDCHAR
STARTCHAR C00cf
ENCODING 207
SWIDTH 666 0
DWIDTH 10 0
BBX 10 18 0 -4
BITMAP
0000
0e00
0a00
0a00
0a00
0a00
0a00
0a00
0a00
0a00
0e00
0000
0000
0000
0000
0000
0000
0000
ENDCHAR
STARTCHAR C00d0
ENCODING 208
SWIDTH 666 0
DWIDTH 10 0
BBX 10 18 0 -4
BITMAP
0000
0000
0000
0000
0000
0000
0000
0000
0e00
0a00
0a00
0a00
0a00
0a00
0a00
0a00
0a00
0a00
ENDCHAR
STARTCHAR C00d1
ENCODING 209
SWIDTH 666 0
DWIDTH 10 0
BBX 10 18 0 -4
BITMAP
0000
0000
0000
0000
3e00
6300
d580
b680
b080
be80
dd80
6300
3e00
0000
0000
0000
0000
0000
ENDCHAR
STARTCHAR C00d2
ENCODING 210
SWIDTH 666 0
DWIDTH 10 0
BBX 10 18 0 -4
BITMAP
0000
0000
0000
0000
0000
0000
0000
0000
03c0
0640
0dc0
0b00
0a00
0a00
0a00
0a00
0a00
0a00
ENDCHAR
STARTCHAR C00d3
ENCODING 211
SWIDTH 666 0
DWIDTH 10 0
BBX 10 18 0 -4
BITMAP
0000
0000
0000
0000
0000
0000
0000
0000
f800
8c00
f600
1a00
0a00
0a00
0a00
0a00
0a00
0a00
ENDCHAR
STARTCHAR C00d4
ENCODING 212
SWIDTH 666 0
DWIDTH 10 0
BBX 10 18 0 -4
BITMAP
0000
0e00
0a00
0a00
0a00
0a00
0a00
0b00
0dc0
0640
03c0
0000
0000
0000
0000
0000
0000
0000
ENDCHAR
STARTCHAR C00d5
ENCODING 213
SWIDTH 666 0
DWIDTH 10 0
BBX 10 18 0 -4
BITMAP
0000
0e00
0a00
0a00
0a00
0a00
0a00
1a00
f600
8c00
f800
0000
0000
0000
0000
0000
0000
0000
ENDCHAR
STARTCHAR C00d6
ENCODING 214
SWIDTH 666 0
DWIDTH 10 0
BBX 10 18 0 -4
BITMAP
0000
0e00
0a00
0a00
0a00
0a00
0b00
0d80
06c0
0340
06c0
0d80
0b00
0a00
0a00
0a00
0a00
0a00
ENDCHAR
STARTCHAR C00d7
ENCODING 215
SWIDTH 666 0
DWIDTH 10 0
BBX 10 18 0 -4
BITMAP
0000
0e00
0a00
0a00
0a00
0a00
1a00
3600
ec00
9800
ec00
3600
1a00
0a00
0a00
0a00
0a00
0a00
ENDCHAR
STARTCHAR C00d8
ENCODING 216
SWIDTH 666 0
DWIDTH 10 0
BBX 10 18 0 -4
BITMAP
0000
0000
0000
0000
0000
0000
0000
0000
fbc0
8e40
f5c0
1b00
0a00
0e00
0000
0000
0000
0000
ENDCHAR
STARTCHAR C00d9
ENCODING 217
SWIDTH 666 0
DWIDTH 10 0
BBX 10 18 0 -4
BITMAP
0000
0000
0000
0000
0000
0e00
0a00
1b00
f5c0
8e40
fbc0
0000
0000
0000
0000
0000
0000
0000
ENDCHAR
STARTCHAR C00da
ENCODING 218
SWIDTH 666 0
DWIDTH 10 0
BBX 10 18 0 -4
BITMAP
0000
0e00
0a00
0a00
0a00
0a00
0a00
0a00
3b80
2080
3b80
0a00
0a00
0a00
0a00
0a00
0a00
0a00
ENDCHAR
STARTCHAR C00db
ENCODING 219
SWIDTH 666 0
DWIDTH 10 0
BBX 10 18 0 -4
BITMAP
0000
0000
0000
0000
0000
0000
0e00
0a00
fbc0
8040
fbc0
0a00
0e00
0000
0000
0000
0000
0000
ENDCHAR
STARTCHAR C00dc
ENCODING 220
SWIDTH 666 0
DWIDTH 10 0
BBX 10 18 0 -4
BITMAP
0000
0000
ffc0
8040
ffc0
8040
ffc0
8040
ffc0
8040
ffc0
8040
ffc0
8040
ffc0
8040
ffc0
8040
ENDCHAR
STARTCHAR C00dd
ENCODING 221
SWIDTH 666 0
DWIDTH 10 0
BBX 10 18 0 -4
BITMAP
0000
0000
ff80
aa80
ff80
aa80
ff80
aa80
ff80
aa80
ff80
aa80
ff80
aa80
ff80
aa80
ff80
aa80
ENDCHAR
STARTCHAR C00de
ENCODING 222
SWIDTH 666 0
DWIDTH 10 0
BBX 10 18 0 -4
BITMAP
0000
7fc0
d540
aac0
d540
aac0
d540
aac0
d540
aac0
d540
aac0
d540
aac0
d540
aac0
d540
aac0
ENDCHAR
STARTCHAR C00df
ENCODING 223
SWIDTH 666 0
DWIDTH 10 0
BBX 10 18 0 -4
BITMAP
0000
ff80
aa80
aa80
aa80
aa80
aa80
aa80
aa80
aa80
aa80
aa80
aa80
aa80
aa80
aa80
aa80
aa80
ENDCHAR
STARTCHAR C00e0
ENCODING 224
SWIDTH 666 0
DWIDTH 10 0
BBX 10 18 0 -4
BITMAP
0000
1e00
1200
1200
1200
1200
1200
1200
1200
1200
1200
1200
1200
1200
1200
1200
1200
1200
ENDCHAR
STARTCHAR C00e1
ENCODING 225
SWIDTH 666 0
DWIDTH 10 0
BBX 10 18 0 -4
BITMAP
0000
0000
0000
0000
0000
0000
0000
0000
ffc0
8040
8040
ffc0
0000
0000
0000
0000
0000
0000
ENDCHAR
STARTCHAR C00e2
ENCODING 226
SWIDTH 666 0
DWIDTH 10 0
BBX 10 18 0 -4
BITMAP
0000
0000
0000
0000
0000
0000
0000
0000
1fc0
1040
1040
13c0
1200
1200
1200
1200
1200
1200
ENDCHAR
STARTCHAR C00e3
ENCODING 227
SWIDTH 666 0
DWIDTH 10 0
BBX 10 18 0 -4
BITMAP
0000
0000
0000
0000
0000
0000
0000
0000
fe00
8200
8200
f200
1200
1200
1200
1200
1200
1200
ENDCHAR
STARTCHAR C00e4
ENCODING 228
SWIDTH 666 0
DWIDTH 10 0
BBX 10 18 0 -4
BITMAP
0000
1e00
1200
1200
1200
1200
1200
1200
13c0
1040
1040
1fc0
0000
0000
0000
0000
0000
0000
ENDCHAR
STARTCHAR C00e5
ENCODING 229
SWIDTH 666 0
DWIDTH 10 0
BBX 10 18 0 -4
BITMAP
0000
1e00
1200
1200
1200
1200
1200
1200
f200
8200
8200
fe00
0000
0000
0000
0000
0000
0000
ENDCHAR
STARTCHAR C00e6
ENCODING 230
SWIDTH 666 0
DWIDTH 10 0
BBX 10 18 0 -4
BITMAP
0000
1e00
1200
1200
1200
1200
1200
1200
13c0
1040
1040
13c0
1200
1200
1200
1200
1200
1200
ENDCHAR
STARTCHAR C00e7
ENCODING 231
SWIDTH 666 0
DWIDTH 10 0
BBX 10 18 0 -4
BITMAP
0000
1e00
1200
1200
1200
1200
1200
1200
f200
8200
8200
f200
1200
1200
1200
1200
1200
1200
ENDCHAR
STARTCHAR C00e8
ENCODING 232
SWIDTH 666 0
DWIDTH 10 0
BBX 10 18 0 -4
BITMAP
0000
0000
0000
0000
0000
0000
0000
0000
ffc0
8040
8040
f3c0
1200
1200
1200
1200
1200
1200
ENDCHAR
STARTCHAR C00e9
ENCODING 233
SWIDTH 666 0
DWIDTH 10 0
BBX 10 18 0 -4
BITMAP
0000
1e00
1200
1200
1200
1200
1200
1200
f3c0
8040
8040
ffc0
0000
0000
0000
0000
0000
0000
ENDCHAR
STARTCHAR C00ea
ENCODING 234
SWIDTH 666 0
DWIDTH 10 0
BBX 10 18 0 -4
BITMAP
0000
1e00
1200
1200
1200
1200
1200
1200
f3c0
8040
8040
f3c0
1200
1200
1200
1200
1200
1200
ENDCHAR
STARTCHAR C00eb
ENCODING 235
SWIDTH 666 0
DWIDTH 10 0
BBX 10 18 0 -4
BITMAP
0000
0000
0000
0000
0000
0000
0700
0580
fcc0
8040
8040
fcc0
0580
0700
0000
0000
0000
0000
ENDCHAR
STARTCHAR C00ec
ENCODING 236
SWIDTH 666 0
DWIDTH 10 0
BBX 10 18 0 -4
BITMAP
0000
0000
0000
0000
0000
0000
3800
6800
cfc0
8040
8040
cfc0
6800
3800
0000
0000
0000
0000
ENDCHAR
STARTCHAR C00ed
ENCODING 237
SWIDTH 666 0
DWIDTH 10 0
BBX 10 18 0 -4
BITMAP
0000
1e00
3300
6180
4080
7380
1200
1200
1200
1200
1200
1200
1200
1200
1200
1200
1200
1200
ENDCHAR
STARTCHAR C00ee
ENCODING 238
SWIDTH 666 0
DWIDTH 10 0
BBX 10 18 0 -4
BITMAP
0000
1e00
1200
1200
1200
1200
1200
1200
1200
1200
1200
1200
1200
1200
7380
4080
6180
3300
ENDCHAR
STARTCHAR C00ef
ENCODING 239
SWIDTH 666 0
DWIDTH 10 0
BBX 10 18 0 -4
BITMAP
0000
1e00
1200
1200
1200
1200
1200
1200
1200
1200
1200
1e00
0000
0000
0000
0000
0000
0000
ENDCHAR
STARTCHAR C00f0
ENCODING 240
SWIDTH 666 0
DWIDTH 10 0
BBX 10 18 0 -4
BITMAP
0000
0000
0000
0000
0000
0000
0000
0000
1e00
1200
1200
1200
1200
1200
1200
1200
1200
1200
ENDCHAR
STARTCHAR C00f1
ENCODING 241
SWIDTH 666 0
DWIDTH 10 0
BBX 10 18 0 -4
BITMAP
0000
0000
0000
0000
7f00
4100
7f00
4100
7f00
4100
7f00
0000
0000
0000
0000
0000
0000
0000
ENDCHAR
STARTCHAR C00f2
ENCODING 242
SWIDTH 666 0
DWIDTH 10 0
BBX 10 18 0 -4
BITMAP
0000
0000
0000
0000
0000
0000
0000
0000
07c0
0c40
1840
11c0
1300
1200
1200
1200
1200
1200
ENDCHAR
STARTCHAR C00f3
ENCODING 243
SWIDTH 666 0
DWIDTH 10 0
BBX 10 18 0 -4
BITMAP
0000
0000
0000
0000
0000
0000
0000
0000
f800
8c00
8600
e200
3200
1200
1200
1200
1200
1200
ENDCHAR
STARTCHAR C00f4
ENCODING 244
SWIDTH 666 0
DWIDTH 10 0
BBX 10 18 0 -4
BITMAP
0000
1e00
1200
1200
1200
1200
1200
1300
11c0
1840
0c40
07c0
0000
0000
0000
0000
0000
0000
ENDCHAR
STARTCHAR C00f5
ENCODING 245
SWIDTH 666 0
DWIDTH 10 0
BBX 10 18 0 -4
BITMAP
0000
1e00
1200
1200
1200
1200
1200
3200
e200
8600
8c00
f800
0000
0000
0000
0000
0000
0000
ENDCHAR
STARTCHAR C00f6
ENCODING 246
SWIDTH 666 0
DWIDTH 10 0
BBX 10 18 0 -4
BITMAP
0000
1e00
1200
1200
1200
1200
1300
1980
0cc0
0640
0640
0cc0
1980
1300
1200
1200
1200
1200
ENDCHAR
STARTCHAR C00f7
ENCODING 247
SWIDTH 666 0
DWIDTH 10 0
BBX 10 18 0 -4
BITMAP
0000
1e00
1200
1200
1200
1200
3200
6600
cc00
9800
9800
cc00
6600
3200
1200
1200
1200
1200
ENDCHAR
STARTCHAR C00f8
ENCODING 248
SWIDTH 666 0
DWIDTH 10 0
BBX 10 18 0 -4
BITMAP
0000
0000
0000
0000
0000
0000
0000
0000
f3c0
9e40
8c40
c0c0
7380
1200
1e00
0000
0000
0000
ENDCHAR
STARTCHAR C00f9
ENCODING 249
SWIDTH 666 0
DWIDTH 10 0
BBX 10 18 0 -4
BITMAP
0000
0000
0000
0000
1e00
1200
7380
c0c0
8c40
9e40
f3c0
0000
0000
0000
0000
0000
0000
0000
ENDCHAR
STARTCHAR C00fa
ENCODING 250
SWIDTH 666 0
DWIDTH 10 0
BBX 10 18 0 -4
BITMAP
0000
1e00
1200
1200
1200
1200
1200
1200
7380
4080
4080
7380
1200
1200
1200
1200
1200
1200
ENDCHAR
STARTCHAR C00fb
ENCODING 251
SWIDTH 666 0
DWIDTH 10 0
BBX 10 18 0 -4
BITMAP
0000
0000
0000
0000
0000
0000
1e00
1200
f3c0
8040
8040
f3c0
1200
1e00
0000
0000
0000
0000
ENDCHAR
STARTCHAR C00fc
ENCODING 252
SWIDTH 666 0
DWIDTH 10 0
BBX 10 18 0 -4
BITMAP
0000
0000
0000
0000
ff00
8180
be80
a380
a000
a000
a000
a000
e000
0000
0000
0000
0000
0000
ENDCHAR
STARTCHAR C00fd
ENCODING 253
SWIDTH 666 0
DWIDTH 10 0
BBX 10 18 0 -4
BITMAP
0000
0000
0000
0000
7fc0
c040
afc0
b400
b400
b400
b400
cc00
7800
0000
0000
0000
0000
0000
ENDCHAR
STARTCHAR C00fe
ENCODING 254
SWIDTH 666 0
DWIDTH 10 0
BBX 10 18 0 -4
BITMAP
0000
0000
0000
0000
7f80
c080
b780
f400
1400
1400
1600
1a00
0e00
0000
0000
0000
0000
0000
ENDCHAR
STARTCHAR C00ff
ENCODING 255
SWIDTH 666 0
DWIDTH 10 0
BBX 10 18 0 -4
BITMAP
0000
0000
0000
0000
7f80
c080
b780
f400
1400
1400
1600
1a00
0e00
0000
0000
0000
0000
0000
ENDCHAR
ENDFONT
